<?xml version="1.0" encoding="UTF-8"?>
<!DOCTYPE svg PUBLIC "-//W3C//DTD SVG 1.1//EN" "http://www.w3.org/Graphics/SVG/1.1/DTD/svg11.dtd">
<svg xmlns="http://www.w3.org/2000/svg" version="1.1" width="2402px" height="1281px" style="shape-rendering:geometricPrecision; text-rendering:geometricPrecision; image-rendering:optimizeQuality; fill-rule:evenodd; clip-rule:evenodd" xmlns:xlink="http://www.w3.org/1999/xlink">
<g><path style="opacity:0.098" fill="#fefefe" d="M 2192.5,-0.5 C 2203.17,-0.5 2213.83,-0.5 2224.5,-0.5C 2244.81,1.20019 2264.47,6.03353 2283.5,14C 2286.25,15.1227 2288.75,16.6227 2291,18.5C 2327.55,151.372 2364.38,284.039 2401.5,416.5C 2401.5,417.5 2401.5,418.5 2401.5,419.5C 1600.84,422.284 800.169,424.618 -0.5,426.5C -0.5,423.833 -0.5,421.167 -0.5,418.5C 8.15346,337.308 16.8201,255.975 25.5,174.5C 196.482,122.672 370.816,87.1722 548.5,68C 633.731,59.0903 719.064,57.7569 804.5,64C 823.571,65.7588 842.571,68.0922 861.5,71C 933.994,87.099 1006.66,102.432 1079.5,117C 1203.81,140.539 1329.15,155.539 1455.5,162C 1506.83,163.968 1558.17,163.968 1609.5,162C 1660.48,160.059 1710.48,152.059 1759.5,138C 1787.43,129.802 1815.09,120.802 1842.5,111C 1896.28,90.6108 1949.94,69.9442 2003.5,49C 2048.12,31.5722 2093.78,17.5722 2140.5,7C 2157.85,3.59244 2175.19,1.09244 2192.5,-0.5 Z"/></g>
<g><path style="opacity:0.098" fill="#fefefe" d="M -0.5,853.5 C -0.5,849.5 -0.5,845.5 -0.5,841.5C 6.71572,751.69 13.3824,661.69 19.5,571.5C 203.521,541.634 388.521,533.134 574.5,546C 624.852,550.05 674.852,556.717 724.5,566C 757.167,573 789.833,580 822.5,587C 898.685,599.957 975.352,603.957 1052.5,599C 1130.35,593.974 1207.35,582.974 1283.5,566C 1324.11,557.098 1364.44,547.098 1404.5,536C 1461.92,519.644 1519.26,502.977 1576.5,486C 1643.39,468.808 1711.39,460.641 1780.5,461.5C 1916.29,461.991 2047.45,486.657 2174,535.5C 2178.89,641.483 2183.39,747.483 2187.5,853.5C 1458.17,853.5 728.833,853.5 -0.5,853.5 Z"/></g>
<g><path style="opacity:0.098" fill="#fefefe" d="M 2187.5,1280.5 C 1458.17,1280.5 728.833,1280.5 -0.5,1280.5C -0.5,1277.17 -0.5,1273.83 -0.5,1270.5C 5.59012,1206.68 11.4235,1142.68 17,1078.5C 17.3095,1077.23 17.8095,1076.07 18.5,1075C 180.814,1016.47 347.814,978.47 519.5,961C 586.144,955.464 652.811,955.131 719.5,960C 735.884,961.59 752.217,963.59 768.5,966C 820.125,976.823 871.792,987.489 923.5,998C 1101.7,1028.33 1280.7,1034 1460.5,1015C 1521.36,1009.08 1581.36,998.413 1640.5,983C 1648.5,980.333 1656.5,977.667 1664.5,975C 1710.66,956.724 1756.66,938.058 1802.5,919C 1867.77,892.765 1935.44,876.431 2005.5,870C 2066.66,865.666 2127,870.833 2186.5,885.5C 2187.5,1017.16 2187.83,1148.83 2187.5,1280.5 Z"/></g>
</svg>
